<?xml version="1.0" encoding="UTF-8"?>
<svg id="Layer_1" data-name="Layer 1" xmlns="http://www.w3.org/2000/svg" viewBox="0 0 660.26 660.26">
  <defs>
    <style>
      .cls-1 {
        fill: #c6f432;
      }
    </style>
  </defs>
  <rect width="660.26" height="660.26" rx="115.33" ry="115.33"/>
  <g>
    <path class="cls-1" d="M483.88,92.67h-78.1v38.38h78.1c25.04,0,45.38,20.34,45.38,45.28v78.19h38.38v-78.19c0-46.15-37.61-83.66-83.76-83.66ZM92.62,176.33v78.19h38.38v-78.19c0-24.94,20.34-45.28,45.28-45.28h78.19v-38.38h-78.19c-46.15,0-83.66,37.51-83.66,83.66ZM529.26,405.73v78.19c0,24.94-20.34,45.29-45.38,45.29h-78.1v38.38h78.1c46.15,0,83.76-37.51,83.76-83.66v-78.19h-38.38ZM131,483.92v-78.19h-38.38v78.19c0,46.15,37.51,83.66,83.66,83.66h78.19v-38.38h-78.19c-24.94,0-45.28-20.34-45.28-45.29Z"/>
    <g>
      <path class="cls-1" d="M251.6,172.56v144h26.81v-45.43h18.9v45.43h26.81v-144h-72.52ZM278.41,235.71v-27.72h18.9v27.72h-18.9Z"/>
      <polygon class="cls-1" points="408.57 315.77 336.04 315.77 336.04 280.35 381.76 280.35 381.76 261.87 336.04 261.87 336.04 172.53 408.86 172.53 408.86 207.95 362.85 207.95 362.85 226.44 408.57 226.44 408.57 315.77"/>
      <polygon class="cls-1" points="489.95 171.72 489.95 317.4 463.14 317.4 463.14 262.32 447.59 262.32 447.59 317.4 420.78 317.4 420.78 171.72 447.59 171.72 447.59 226.89 463.14 226.89 463.14 171.72 489.95 171.72"/>
      <polygon class="cls-1" points="237.65 315.77 170.31 315.77 170.31 172.53 237.65 172.53 237.65 207.95 197.12 207.95 197.12 280.35 237.65 280.35 237.65 315.77"/>
    </g>
    <g>
      <polygon class="cls-1" points="237.65 487.38 170.31 487.38 170.31 342.37 197.12 342.37 197.12 451.96 237.65 451.96 237.65 487.38"/>
      <path class="cls-1" d="M323.85,486.39h-71.99v-142.92l71.99-.44v143.36ZM278.67,450.97h18.37v-72.34l-18.37.11v72.23Z"/>
    </g>
    <g>
      <path class="cls-1" d="M338.77,343.06v40.13h42.33v-40.13h-42.33ZM375.05,377.46h-30.24v-28.67h30.24v28.67Z"/>
      <path class="cls-1" d="M447.62,343.06v40.13h42.33v-40.13h-42.33ZM483.91,377.46h-30.24v-28.67h30.24v28.67Z"/>
      <path class="cls-1" d="M350.86,354.53h18.14v17.2h-18.14v-17.2Z"/>
      <path class="cls-1" d="M441.58,365.99v-17.2h-18.14v-5.73h-6.05v11.47h-6.05v-11.47h-24.19v11.47h6.05v5.73h6.05v-11.46h6.05v11.46h12.1v5.73h-6.05v5.73h18.14v5.74h6.05v11.46h6.05v-17.2h-6.05v-5.73h6.05ZM423.43,360.26v-5.73h12.09v5.73h-12.09Z"/>
      <path class="cls-1" d="M459.72,354.53h18.14v17.2h-18.14v-17.2Z"/>
      <path class="cls-1" d="M387.15,360.26h6.05v11.47h18.14v5.74h-6.05v5.73h-6.05v-5.73h-6.05v5.73h-6.05v-22.93Z"/>
      <path class="cls-1" d="M411.34,377.46h6.05v5.73h-6.05v-5.73Z"/>
      <path class="cls-1" d="M423.43,377.46h6.05v17.2h-6.05v-5.73h-6.05v-5.73h6.05v-5.73Z"/>
      <path class="cls-1" d="M393.19,383.19h6.05v5.73h-6.05v-5.73Z"/>
      <path class="cls-1" d="M405.29,383.19h6.05v5.73h-6.05v-5.73Z"/>
      <path class="cls-1" d="M356.91,388.93h6.05v5.74h-6.05v-5.74Z"/>
      <path class="cls-1" d="M375.05,388.93h6.05v5.74h-6.05v-5.74Z"/>
      <path class="cls-1" d="M411.34,388.93h6.05v5.74h-6.05v-5.74Z"/>
      <path class="cls-1" d="M453.67,388.93h18.14v5.73h-12.09v5.73h12.09v-5.73h6.05v11.47h-24.19v-17.2Z"/>
      <path class="cls-1" d="M477.86,388.93h12.09v17.2h-6.05v-11.47h-6.05v-5.73Z"/>
      <path class="cls-1" d="M338.77,394.66h18.14v5.73h-18.14v-5.73Z"/>
      <path class="cls-1" d="M362.96,394.66h12.09v5.73h-6.05v5.74h-6.05v-11.47Z"/>
      <path class="cls-1" d="M387.15,394.66h6.05v5.73h-6.05v-5.73Z"/>
      <path class="cls-1" d="M417.39,394.66h6.05v5.73h-6.05v-5.73Z"/>
      <path class="cls-1" d="M441.58,394.66h6.05v11.47h-12.1v-5.74h6.05v-5.73Z"/>
      <path class="cls-1" d="M375.05,400.39h12.09v5.74h6.05v17.2h-6.05v5.74h6.05v-5.74h6.05v11.47h-12.09v5.73h-24.19v-11.46h6.05v5.73h12.09v-5.73h-6.05v-5.74h6.05v-5.73h-6.05v-5.73h6.05v-5.73h-6.05v-5.74Z"/>
      <path class="cls-1" d="M338.77,406.13h6.05v5.73h-6.05v-5.73Z"/>
      <path class="cls-1" d="M356.91,406.13h6.05v11.46h12.09v5.73h-12.09v5.74h-12.09v-5.74h-6.05v-11.47h6.05v5.73h6.05v-11.46Z"/>
      <path class="cls-1" d="M447.62,406.13h6.05v5.73h-6.05v-5.73Z"/>
      <path class="cls-1" d="M453.67,411.86h18.14v5.73h-12.09v5.73h-6.05v-11.47Z"/>
      <path class="cls-1" d="M477.86,411.86h6.05v5.73h6.05v11.47h-18.14v-11.47h6.05v-5.73Z"/>
      <path class="cls-1" d="M399.24,417.59h6.05v5.74h-6.05v-5.74Z"/>
      <path class="cls-1" d="M338.77,423.33h6.05v5.74h-6.05v-5.74Z"/>
      <path class="cls-1" d="M405.29,423.33h6.05v5.74h-6.05v-5.74Z"/>
      <path class="cls-1" d="M344.81,429.06h6.05v11.46h-12.09v-5.73h6.05v-5.73Z"/>
      <path class="cls-1" d="M387.15,440.53h6.05v5.73h-6.05v-5.73Z"/>
      <path class="cls-1" d="M393.19,446.26h6.05v22.93h6.05v-11.46h18.14v5.73h-6.05v17.2h6.05v5.73h-18.14v-5.73h-6.05v-5.73h-6.05v-5.74h-6.05v-5.73h6.05v-17.2Z"/>
      <path class="cls-1" d="M447.62,446.26h6.05v5.74h-6.05v-5.74Z"/>
      <path class="cls-1" d="M338.77,446.26v40.13h42.33v-40.13h-42.33ZM375.05,480.66h-30.24v-28.66h30.24v28.66Z"/>
      <path class="cls-1" d="M350.86,457.73h18.14v17.2h-18.14v-17.2Z"/>
      <path class="cls-1" d="M483.91,434.8v5.73h-6.05v-5.73h-6.05v5.73h-6.05v-11.46h-12.09v5.73h-12.09v-5.73h12.09v-5.74h-6.05v-11.47h-12.09v5.73h6.05v5.73h-6.05v-5.73h-6.05v-5.73h6.05v-5.73h-6.05v-5.73h-6.05v5.74h-18.14v-5.74h6.05v-5.73h-6.05v-5.73h-6.05v11.47h-6.05v5.74h6.05v5.73h6.05v5.73h12.1v-5.73h6.05v5.73h-6.05v5.73h6.05v5.74h-12.09v11.46h-6.05v5.73h18.14v5.74h6.05v-11.47h-12.09v-5.73h12.09v-5.73h6.05v5.73h-6.05v5.73h6.05v11.47h-6.05v5.73h6.05v5.73h6.05v17.2h12.09v-5.73h18.14v-5.74h12.1v-11.46h-6.05v5.73h-12.09v-17.2h6.05v11.47h6.05v-11.47h6.05v5.74h6.04v-17.2h-6.05ZM459.72,469.19h-12.09v-5.73h12.09v5.73ZM459.72,457.73h-18.14v-17.2h18.14v17.2Z"/>
      <path class="cls-1" d="M423.43,469.19h6.05v5.74h-6.05v-5.74Z"/>
      <path class="cls-1" d="M483.91,469.19h6.05v5.74h-6.05v-5.74Z"/>
      <path class="cls-1" d="M429.48,474.93h6.05v11.46h-6.05v-11.46Z"/>
      <path class="cls-1" d="M393.19,480.66h6.05v5.73h-6.05v-5.73Z"/>
      <path class="cls-1" d="M459.72,480.66h12.09v5.73h-12.09v-5.73Z"/>
      <path class="cls-1" d="M477.86,480.66h12.09v5.73h-12.09v-5.73Z"/>
    </g>
  </g>
</svg>